M48
; DRILL file {KiCad 5.1.6+dfsg1-1} date Sun Aug  9 15:40:17 2020
; FORMAT={-:-/ absolute / inch / decimal}
; #@! TF.CreationDate,2020-08-09T15:40:17+02:00
; #@! TF.GenerationSoftware,Kicad,Pcbnew,5.1.6+dfsg1-1
; #@! TF.FileFunction,Plated,1,2,PTH
FMAT,2
INCH
T1C0.0157
T2C0.0197
T3C0.0295
T4C0.0394
T5C0.0433
T6C0.0472
%
G90
G05
T1
X5.7Y-3.95
X5.7127Y-3.6327
X5.76Y-3.7
X6.4Y-3.0
X6.5Y-3.35
X6.55Y-3.85
X6.85Y-3.42
X6.94Y-3.28
X6.95Y-3.0
X7.0Y-3.22
X7.0Y-3.82
X7.06Y-3.1
X7.2398Y-3.6602
X7.24Y-3.62
X7.25Y-3.9
X7.26Y-3.58
X7.4Y-3.28
X7.42Y-3.54
X7.44Y-3.46
X7.44Y-3.58
X7.44Y-3.8
X7.4428Y-3.5028
X7.48Y-3.8
X7.5173Y-3.4027
X7.54Y-3.76
X7.6Y-3.62
X7.6Y-3.75
X7.7Y-3.15
X7.7623Y-3.2823
X7.8Y-3.9
X7.85Y-3.4
X7.85Y-3.5
X7.9252Y-3.78
X8.0Y-3.4
X8.0Y-3.5
X8.04Y-3.82
X8.05Y-3.75
X8.1Y-3.3
X8.15Y-3.15
X8.2Y-3.95
X8.3Y-3.55
X8.3Y-3.95
X8.35Y-3.2
X8.36Y-3.28
X8.4Y-3.95
X8.545Y-3.93
X8.64Y-3.1
X8.64Y-3.2
X8.7Y-3.825
X8.75Y-3.55
X9.04Y-3.3
X9.05Y-3.65
X9.22Y-3.04
X9.3Y-3.04
X9.3819Y-3.9181
X9.4606Y-3.9194
X9.5394Y-3.7194
X9.6Y-3.7
T2
X7.8335Y-2.9783
X7.8335Y-3.0965
X8.05Y-3.0
X8.05Y-3.0748
T3
X5.95Y-3.6
X5.95Y-3.6787
X5.95Y-3.7575
X5.95Y-3.8362
X6.25Y-3.6
X6.25Y-3.6787
X6.25Y-3.7575
X6.25Y-3.8362
X5.95Y-3.1
X5.95Y-3.1787
X5.95Y-3.2575
X5.95Y-3.3362
X6.25Y-3.1
X6.25Y-3.1787
X6.25Y-3.2575
X6.25Y-3.3362
T4
X8.25Y-3.7
X8.25Y-3.8
X8.35Y-3.7
X8.35Y-3.8
X8.45Y-3.7
X8.45Y-3.8
X9.06Y-3.06
X9.06Y-3.16
X7.35Y-3.9
X7.55Y-3.9
X7.65Y-3.9
X5.65Y-3.05
X5.65Y-3.15
X6.8Y-3.9
X6.9Y-3.9
T5
X6.55Y-3.05
X6.55Y-3.2272
X6.8059Y-3.05
X6.8059Y-3.2272
T6
X9.05Y-3.85
X9.08Y-3.45
X7.68Y-3.45
T0
M30
