G04 #@! TF.GenerationSoftware,KiCad,Pcbnew,5.1.6+dfsg1-1*
G04 #@! TF.CreationDate,2020-08-09T15:43:52+02:00*
G04 #@! TF.ProjectId,CaLoRa,43614c6f-5261-42e6-9b69-6361645f7063,rev?*
G04 #@! TF.SameCoordinates,Original*
G04 #@! TF.FileFunction,Paste,Top*
G04 #@! TF.FilePolarity,Positive*
%FSLAX46Y46*%
G04 Gerber Fmt 4.6, Leading zero omitted, Abs format (unit mm)*
G04 Created by KiCad (PCBNEW 5.1.6+dfsg1-1) date 2020-08-09 15:43:52*
%MOMM*%
%LPD*%
G01*
G04 APERTURE LIST*
%ADD10R,6.000000X2.500000*%
%ADD11R,4.900000X3.000000*%
%ADD12R,1.000000X2.000000*%
%ADD13R,1.750000X0.550000*%
%ADD14R,1.600000X0.550000*%
%ADD15R,0.550000X1.600000*%
%ADD16R,1.900000X0.800000*%
G04 APERTURE END LIST*
G36*
G01*
X227887500Y-93335000D02*
X227887500Y-92085000D01*
G75*
G02*
X228137500Y-91835000I250000J0D01*
G01*
X229062500Y-91835000D01*
G75*
G02*
X229312500Y-92085000I0J-250000D01*
G01*
X229312500Y-93335000D01*
G75*
G02*
X229062500Y-93585000I-250000J0D01*
G01*
X228137500Y-93585000D01*
G75*
G02*
X227887500Y-93335000I0J250000D01*
G01*
G37*
G36*
G01*
X224912500Y-93335000D02*
X224912500Y-92085000D01*
G75*
G02*
X225162500Y-91835000I250000J0D01*
G01*
X226087500Y-91835000D01*
G75*
G02*
X226337500Y-92085000I0J-250000D01*
G01*
X226337500Y-93335000D01*
G75*
G02*
X226087500Y-93585000I-250000J0D01*
G01*
X225162500Y-93585000D01*
G75*
G02*
X224912500Y-93335000I0J250000D01*
G01*
G37*
G36*
G01*
X214493000Y-85548500D02*
X213243000Y-85548500D01*
G75*
G02*
X212993000Y-85298500I0J250000D01*
G01*
X212993000Y-84373500D01*
G75*
G02*
X213243000Y-84123500I250000J0D01*
G01*
X214493000Y-84123500D01*
G75*
G02*
X214743000Y-84373500I0J-250000D01*
G01*
X214743000Y-85298500D01*
G75*
G02*
X214493000Y-85548500I-250000J0D01*
G01*
G37*
G36*
G01*
X214493000Y-88523500D02*
X213243000Y-88523500D01*
G75*
G02*
X212993000Y-88273500I0J250000D01*
G01*
X212993000Y-87348500D01*
G75*
G02*
X213243000Y-87098500I250000J0D01*
G01*
X214493000Y-87098500D01*
G75*
G02*
X214743000Y-87348500I0J-250000D01*
G01*
X214743000Y-88273500D01*
G75*
G02*
X214493000Y-88523500I-250000J0D01*
G01*
G37*
G36*
G01*
X208163000Y-87098500D02*
X209413000Y-87098500D01*
G75*
G02*
X209663000Y-87348500I0J-250000D01*
G01*
X209663000Y-88273500D01*
G75*
G02*
X209413000Y-88523500I-250000J0D01*
G01*
X208163000Y-88523500D01*
G75*
G02*
X207913000Y-88273500I0J250000D01*
G01*
X207913000Y-87348500D01*
G75*
G02*
X208163000Y-87098500I250000J0D01*
G01*
G37*
G36*
G01*
X208163000Y-84123500D02*
X209413000Y-84123500D01*
G75*
G02*
X209663000Y-84373500I0J-250000D01*
G01*
X209663000Y-85298500D01*
G75*
G02*
X209413000Y-85548500I-250000J0D01*
G01*
X208163000Y-85548500D01*
G75*
G02*
X207913000Y-85298500I0J250000D01*
G01*
X207913000Y-84373500D01*
G75*
G02*
X208163000Y-84123500I250000J0D01*
G01*
G37*
G36*
G01*
X183375000Y-81475000D02*
X183375000Y-83625000D01*
G75*
G02*
X183125000Y-83875000I-250000J0D01*
G01*
X182200000Y-83875000D01*
G75*
G02*
X181950000Y-83625000I0J250000D01*
G01*
X181950000Y-81475000D01*
G75*
G02*
X182200000Y-81225000I250000J0D01*
G01*
X183125000Y-81225000D01*
G75*
G02*
X183375000Y-81475000I0J-250000D01*
G01*
G37*
G36*
G01*
X186350000Y-81475000D02*
X186350000Y-83625000D01*
G75*
G02*
X186100000Y-83875000I-250000J0D01*
G01*
X185175000Y-83875000D01*
G75*
G02*
X184925000Y-83625000I0J250000D01*
G01*
X184925000Y-81475000D01*
G75*
G02*
X185175000Y-81225000I250000J0D01*
G01*
X186100000Y-81225000D01*
G75*
G02*
X186350000Y-81475000I0J-250000D01*
G01*
G37*
D10*
X198970000Y-77150000D03*
D11*
X191770000Y-77470000D03*
X184470000Y-77470000D03*
D12*
X234300000Y-80900000D03*
X236300000Y-80900000D03*
X238300000Y-80900000D03*
X240300000Y-80900000D03*
X242300000Y-80900000D03*
X244300000Y-80900000D03*
X246300000Y-80900000D03*
X248300000Y-80900000D03*
X248300000Y-96900000D03*
X246300000Y-96900000D03*
X244300000Y-96900000D03*
X242300000Y-96900000D03*
X240300000Y-96900000D03*
X238300000Y-96900000D03*
X236300000Y-96900000D03*
X234300000Y-96900000D03*
D13*
X217060000Y-76835000D03*
X217060000Y-78105000D03*
X217060000Y-79375000D03*
X217060000Y-80645000D03*
X209660000Y-80645000D03*
X209660000Y-79375000D03*
X209660000Y-78105000D03*
X209660000Y-76835000D03*
D14*
X190940000Y-87370000D03*
X190940000Y-88170000D03*
X190940000Y-88970000D03*
X190940000Y-89770000D03*
X190940000Y-90570000D03*
X190940000Y-91370000D03*
X190940000Y-92170000D03*
X190940000Y-92970000D03*
D15*
X189490000Y-94420000D03*
X188690000Y-94420000D03*
X187890000Y-94420000D03*
X187090000Y-94420000D03*
X186290000Y-94420000D03*
X185490000Y-94420000D03*
X184690000Y-94420000D03*
X183890000Y-94420000D03*
D14*
X182440000Y-92970000D03*
X182440000Y-92170000D03*
X182440000Y-91370000D03*
X182440000Y-90570000D03*
X182440000Y-89770000D03*
X182440000Y-88970000D03*
X182440000Y-88170000D03*
X182440000Y-87370000D03*
D15*
X183890000Y-85920000D03*
X184690000Y-85920000D03*
X185490000Y-85920000D03*
X186290000Y-85920000D03*
X187090000Y-85920000D03*
X187890000Y-85920000D03*
X188690000Y-85920000D03*
X189490000Y-85920000D03*
G36*
G01*
X222781500Y-80655000D02*
X222781500Y-81905000D01*
G75*
G02*
X222531500Y-82155000I-250000J0D01*
G01*
X221606500Y-82155000D01*
G75*
G02*
X221356500Y-81905000I0J250000D01*
G01*
X221356500Y-80655000D01*
G75*
G02*
X221606500Y-80405000I250000J0D01*
G01*
X222531500Y-80405000D01*
G75*
G02*
X222781500Y-80655000I0J-250000D01*
G01*
G37*
G36*
G01*
X225756500Y-80655000D02*
X225756500Y-81905000D01*
G75*
G02*
X225506500Y-82155000I-250000J0D01*
G01*
X224581500Y-82155000D01*
G75*
G02*
X224331500Y-81905000I0J250000D01*
G01*
X224331500Y-80655000D01*
G75*
G02*
X224581500Y-80405000I250000J0D01*
G01*
X225506500Y-80405000D01*
G75*
G02*
X225756500Y-80655000I0J-250000D01*
G01*
G37*
G36*
G01*
X222745000Y-76591000D02*
X222745000Y-77841000D01*
G75*
G02*
X222495000Y-78091000I-250000J0D01*
G01*
X221570000Y-78091000D01*
G75*
G02*
X221320000Y-77841000I0J250000D01*
G01*
X221320000Y-76591000D01*
G75*
G02*
X221570000Y-76341000I250000J0D01*
G01*
X222495000Y-76341000D01*
G75*
G02*
X222745000Y-76591000I0J-250000D01*
G01*
G37*
G36*
G01*
X225720000Y-76591000D02*
X225720000Y-77841000D01*
G75*
G02*
X225470000Y-78091000I-250000J0D01*
G01*
X224545000Y-78091000D01*
G75*
G02*
X224295000Y-77841000I0J250000D01*
G01*
X224295000Y-76591000D01*
G75*
G02*
X224545000Y-76341000I250000J0D01*
G01*
X225470000Y-76341000D01*
G75*
G02*
X225720000Y-76591000I0J-250000D01*
G01*
G37*
G36*
G01*
X174615000Y-89395000D02*
X173365000Y-89395000D01*
G75*
G02*
X173115000Y-89145000I0J250000D01*
G01*
X173115000Y-88220000D01*
G75*
G02*
X173365000Y-87970000I250000J0D01*
G01*
X174615000Y-87970000D01*
G75*
G02*
X174865000Y-88220000I0J-250000D01*
G01*
X174865000Y-89145000D01*
G75*
G02*
X174615000Y-89395000I-250000J0D01*
G01*
G37*
G36*
G01*
X174615000Y-92370000D02*
X173365000Y-92370000D01*
G75*
G02*
X173115000Y-92120000I0J250000D01*
G01*
X173115000Y-91195000D01*
G75*
G02*
X173365000Y-90945000I250000J0D01*
G01*
X174615000Y-90945000D01*
G75*
G02*
X174865000Y-91195000I0J-250000D01*
G01*
X174865000Y-92120000D01*
G75*
G02*
X174615000Y-92370000I-250000J0D01*
G01*
G37*
G36*
G01*
X219065000Y-85585000D02*
X217815000Y-85585000D01*
G75*
G02*
X217565000Y-85335000I0J250000D01*
G01*
X217565000Y-84410000D01*
G75*
G02*
X217815000Y-84160000I250000J0D01*
G01*
X219065000Y-84160000D01*
G75*
G02*
X219315000Y-84410000I0J-250000D01*
G01*
X219315000Y-85335000D01*
G75*
G02*
X219065000Y-85585000I-250000J0D01*
G01*
G37*
G36*
G01*
X219065000Y-88560000D02*
X217815000Y-88560000D01*
G75*
G02*
X217565000Y-88310000I0J250000D01*
G01*
X217565000Y-87385000D01*
G75*
G02*
X217815000Y-87135000I250000J0D01*
G01*
X219065000Y-87135000D01*
G75*
G02*
X219315000Y-87385000I0J-250000D01*
G01*
X219315000Y-88310000D01*
G75*
G02*
X219065000Y-88560000I-250000J0D01*
G01*
G37*
D16*
X225020000Y-86040000D03*
X222020000Y-86990000D03*
X222020000Y-85090000D03*
G36*
G01*
X242075000Y-77275000D02*
X242075000Y-75125000D01*
G75*
G02*
X242325000Y-74875000I250000J0D01*
G01*
X243250000Y-74875000D01*
G75*
G02*
X243500000Y-75125000I0J-250000D01*
G01*
X243500000Y-77275000D01*
G75*
G02*
X243250000Y-77525000I-250000J0D01*
G01*
X242325000Y-77525000D01*
G75*
G02*
X242075000Y-77275000I0J250000D01*
G01*
G37*
G36*
G01*
X239100000Y-77275000D02*
X239100000Y-75125000D01*
G75*
G02*
X239350000Y-74875000I250000J0D01*
G01*
X240275000Y-74875000D01*
G75*
G02*
X240525000Y-75125000I0J-250000D01*
G01*
X240525000Y-77275000D01*
G75*
G02*
X240275000Y-77525000I-250000J0D01*
G01*
X239350000Y-77525000D01*
G75*
G02*
X239100000Y-77275000I0J250000D01*
G01*
G37*
G36*
G01*
X181332500Y-100135000D02*
X181332500Y-97985000D01*
G75*
G02*
X181582500Y-97735000I250000J0D01*
G01*
X182507500Y-97735000D01*
G75*
G02*
X182757500Y-97985000I0J-250000D01*
G01*
X182757500Y-100135000D01*
G75*
G02*
X182507500Y-100385000I-250000J0D01*
G01*
X181582500Y-100385000D01*
G75*
G02*
X181332500Y-100135000I0J250000D01*
G01*
G37*
G36*
G01*
X178357500Y-100135000D02*
X178357500Y-97985000D01*
G75*
G02*
X178607500Y-97735000I250000J0D01*
G01*
X179532500Y-97735000D01*
G75*
G02*
X179782500Y-97985000I0J-250000D01*
G01*
X179782500Y-100135000D01*
G75*
G02*
X179532500Y-100385000I-250000J0D01*
G01*
X178607500Y-100385000D01*
G75*
G02*
X178357500Y-100135000I0J250000D01*
G01*
G37*
G36*
G01*
X168715000Y-89395000D02*
X166565000Y-89395000D01*
G75*
G02*
X166315000Y-89145000I0J250000D01*
G01*
X166315000Y-88220000D01*
G75*
G02*
X166565000Y-87970000I250000J0D01*
G01*
X168715000Y-87970000D01*
G75*
G02*
X168965000Y-88220000I0J-250000D01*
G01*
X168965000Y-89145000D01*
G75*
G02*
X168715000Y-89395000I-250000J0D01*
G01*
G37*
G36*
G01*
X168715000Y-92370000D02*
X166565000Y-92370000D01*
G75*
G02*
X166315000Y-92120000I0J250000D01*
G01*
X166315000Y-91195000D01*
G75*
G02*
X166565000Y-90945000I250000J0D01*
G01*
X168715000Y-90945000D01*
G75*
G02*
X168965000Y-91195000I0J-250000D01*
G01*
X168965000Y-92120000D01*
G75*
G02*
X168715000Y-92370000I-250000J0D01*
G01*
G37*
G36*
G01*
X193815000Y-83625000D02*
X193815000Y-81475000D01*
G75*
G02*
X194065000Y-81225000I250000J0D01*
G01*
X194990000Y-81225000D01*
G75*
G02*
X195240000Y-81475000I0J-250000D01*
G01*
X195240000Y-83625000D01*
G75*
G02*
X194990000Y-83875000I-250000J0D01*
G01*
X194065000Y-83875000D01*
G75*
G02*
X193815000Y-83625000I0J250000D01*
G01*
G37*
G36*
G01*
X190840000Y-83625000D02*
X190840000Y-81475000D01*
G75*
G02*
X191090000Y-81225000I250000J0D01*
G01*
X192015000Y-81225000D01*
G75*
G02*
X192265000Y-81475000I0J-250000D01*
G01*
X192265000Y-83625000D01*
G75*
G02*
X192015000Y-83875000I-250000J0D01*
G01*
X191090000Y-83875000D01*
G75*
G02*
X190840000Y-83625000I0J250000D01*
G01*
G37*
M02*
