G04 #@! TF.GenerationSoftware,KiCad,Pcbnew,5.1.6+dfsg1-1*
G04 #@! TF.CreationDate,2020-08-09T15:43:52+02:00*
G04 #@! TF.ProjectId,CaLoRa,43614c6f-5261-42e6-9b69-6361645f7063,rev?*
G04 #@! TF.SameCoordinates,Original*
G04 #@! TF.FileFunction,Soldermask,Bot*
G04 #@! TF.FilePolarity,Negative*
%FSLAX46Y46*%
G04 Gerber Fmt 4.6, Leading zero omitted, Abs format (unit mm)*
G04 Created by KiCad (PCBNEW 5.1.6+dfsg1-1) date 2020-08-09 15:43:52*
%MOMM*%
%LPD*%
G01*
G04 APERTURE LIST*
%ADD10C,2.400000*%
%ADD11R,1.000000X1.000000*%
%ADD12C,1.000000*%
%ADD13C,2.000000*%
%ADD14O,1.700000X1.700000*%
%ADD15R,1.700000X1.700000*%
%ADD16O,1.750000X1.200000*%
G04 APERTURE END LIST*
D10*
X229870000Y-97790000D03*
D11*
X198970000Y-78650000D03*
X198970000Y-75650000D03*
D12*
X204470000Y-78100000D03*
X204470000Y-76200000D03*
D13*
X172870000Y-77470000D03*
X172870000Y-81970000D03*
X166370000Y-77470000D03*
X166370000Y-81970000D03*
D14*
X230124000Y-77724000D03*
D15*
X230124000Y-80264000D03*
D14*
X143510000Y-80010000D03*
D15*
X143510000Y-77470000D03*
D16*
X151130000Y-84740000D03*
X151130000Y-82740000D03*
X151130000Y-80740000D03*
G36*
G01*
X150504999Y-78140000D02*
X151755001Y-78140000D01*
G75*
G02*
X152005000Y-78389999I0J-249999D01*
G01*
X152005000Y-79090001D01*
G75*
G02*
X151755001Y-79340000I-249999J0D01*
G01*
X150504999Y-79340000D01*
G75*
G02*
X150255000Y-79090001I0J249999D01*
G01*
X150255000Y-78389999D01*
G75*
G02*
X150504999Y-78140000I249999J0D01*
G01*
G37*
X158750000Y-84740000D03*
X158750000Y-82740000D03*
X158750000Y-80740000D03*
G36*
G01*
X158124999Y-78140000D02*
X159375001Y-78140000D01*
G75*
G02*
X159625000Y-78389999I0J-249999D01*
G01*
X159625000Y-79090001D01*
G75*
G02*
X159375001Y-79340000I-249999J0D01*
G01*
X158124999Y-79340000D01*
G75*
G02*
X157875000Y-79090001I0J249999D01*
G01*
X157875000Y-78389999D01*
G75*
G02*
X158124999Y-78140000I249999J0D01*
G01*
G37*
X151130000Y-97440000D03*
X151130000Y-95440000D03*
X151130000Y-93440000D03*
G36*
G01*
X150504999Y-90840000D02*
X151755001Y-90840000D01*
G75*
G02*
X152005000Y-91089999I0J-249999D01*
G01*
X152005000Y-91790001D01*
G75*
G02*
X151755001Y-92040000I-249999J0D01*
G01*
X150504999Y-92040000D01*
G75*
G02*
X150255000Y-91790001I0J249999D01*
G01*
X150255000Y-91089999D01*
G75*
G02*
X150504999Y-90840000I249999J0D01*
G01*
G37*
X158750000Y-97440000D03*
X158750000Y-95440000D03*
X158750000Y-93440000D03*
G36*
G01*
X158124999Y-90840000D02*
X159375001Y-90840000D01*
G75*
G02*
X159625000Y-91089999I0J-249999D01*
G01*
X159625000Y-91790001D01*
G75*
G02*
X159375001Y-92040000I-249999J0D01*
G01*
X158124999Y-92040000D01*
G75*
G02*
X157875000Y-91790001I0J249999D01*
G01*
X157875000Y-91089999D01*
G75*
G02*
X158124999Y-90840000I249999J0D01*
G01*
G37*
D10*
X195072000Y-87630000D03*
D14*
X214630000Y-93980000D03*
X214630000Y-96520000D03*
X212090000Y-93980000D03*
X212090000Y-96520000D03*
X209550000Y-93980000D03*
D15*
X209550000Y-96520000D03*
D14*
X172720000Y-99060000D03*
D15*
X175260000Y-99060000D03*
D14*
X194310000Y-99060000D03*
D15*
X191770000Y-99060000D03*
D10*
X230632000Y-87630000D03*
D15*
X186690000Y-99060000D03*
M02*
